<svg id="Layer_1" data-name="Layer 1" xmlns="http://www.w3.org/2000/svg" viewBox="0 0 144 145"><defs><style>.cls-1{fill:#008a94;}.cls-2{fill:#37dcd6;}</style></defs><title>wave-icon</title><path id="Fill-12" class="cls-1" d="M111,125.09a45.83,45.83,0,0,1-18.67-4,48.34,48.34,0,0,1-19.14-72,46,46,0,0,0-18.68-3.94C33.83,45.13,13.05,60.66,9,80.87c-4.31,21.78,7,40.33,25.45,52A74.12,74.12,0,0,0,50,140.48a67.65,67.65,0,0,0,8.81,2.31c.69.13,1.38.27,2.07.37h.16a72.33,72.33,0,0,0,10.64.81,70.75,70.75,0,0,0,35.86-9.44l1.88-1.09a72.57,72.57,0,0,0,11.86-9.08,75.78,75.78,0,0,1-10.39.7"/><path id="Fill-10" class="cls-2" d="M86.63,1.49H86.4c-1-.2-2-.37-3-.53L82.15.73C81.37.62,80.59.51,79.8.43S78.38.3,77.67.25,76.55.15,76,.12C74.67,0,73.34,0,72,0A71.89,71.89,0,0,0,.56,80.86c.56-2.24,1.06-4.11,1.59-5.8A53.87,53.87,0,0,1,80.41,43.24a49.21,49.21,0,0,1,20.74,21,53.64,53.64,0,0,1,6.61,25.86,54.64,54.64,0,0,1-6.39,25.15,54.24,54.24,0,0,0,29.71-2.08l.37-.59a79.17,79.17,0,0,0,6.14-10.93l.49-1.08c.16-.36.34-.79.5-1.19.32-.77.62-1.54.92-2.32l.18-.48q1.11-3.06,1.95-6.24.18-.71.35-1.44c.1-.41.19-.82.29-1.23A78.57,78.57,0,0,0,144,73.89V71.83A72,72,0,0,0,86.63,1.49"/></svg>